<svg xmlns="http://www.w3.org/2000/svg" version="1.1" xmlns:xlink="http://www.w3.org/1999/xlink" xmlns:svgjs="http://svgjs.com/svgjs" width="1440" height="1200" preserveAspectRatio="none" viewBox="0 0 1440 1200"><g mask="url(&quot;#SvgjsMask1002&quot;)" fill="none"><rect width="1440" height="1200" x="0" y="0" fill="url(#SvgjsLinearGradient1003)"></rect><path d="M -97.2486038182169,266 C -1.25,401.2 190.75,900.4 382.7513961817831,942 C 574.75,983.6 670.75,522.6 862.7513961817831,474 C 1054.75,425.4 1150.75,743.2 1342.751396181783,699 C 1534.75,654.8 1803.3,200.6 1822.751396181783,253 C 1842.2,305.4 1516.55,819.4 1440,961" stroke="rgba(51, 121, 194, 0.64)" stroke-width="2"></path><path d="M -786.448608928931,316 C -690.45,376.2 -498.45,567.2 -306.448608928931,617 C -114.45,666.8 -18.45,528 173.55139107106902,565 C 365.55,602 461.55,816.2 653.551391071069,802 C 845.55,787.8 976.26,452.8 1133.551391071069,494 C 1290.84,535.2 1378.71,905.2 1440,1008" stroke="rgba(51, 121, 194, 0.64)" stroke-width="2"></path><path d="M -768.605319307969,266 C -672.61,374.8 -480.61,827.4 -288.60531930796907,810 C -96.61,792.6 -0.61,159.4 191.39468069203093,179 C 383.39,198.6 479.39,827.2 671.394680692031,908 C 863.39,988.8 997.67,565.2 1151.394680692031,583 C 1305.12,600.8 1382.28,914.2 1440,997" stroke="rgba(51, 121, 194, 0.64)" stroke-width="2"></path><path d="M -539.0362073105769,219 C -443.04,311.6 -251.04,616 -59.03620731057689,682 C 132.96,748 228.96,528.6 420.9637926894231,549 C 612.96,569.4 708.96,801.8 900.9637926894231,784 C 1092.96,766.2 1273.16,426.6 1380.9637926894231,460 C 1488.77,493.4 1428.19,852.8 1440,951" stroke="rgba(51, 121, 194, 0.64)" stroke-width="2"></path></g><defs><mask id="SvgjsMask1002"><rect width="1440" height="1200" fill="#ffffff"></rect></mask><linearGradient x1="4.17%" y1="-5%" x2="95.83%" y2="105%" gradientUnits="userSpaceOnUse" id="SvgjsLinearGradient1003"><stop stop-color="rgba(8, 34, 73, 1)" offset="0"></stop><stop stop-color="rgba(10, 43, 92, 1)" offset="0.5"></stop><stop stop-color="rgba(8, 34, 73, 1)" offset="1"></stop></linearGradient></defs></svg>